<svg id="Capa_1" enable-background="new 0 0 512 512" height="512" viewBox="0 0 512 512" width="300"
 xmlns="http://www.w3.org/2000/svg" xmlns:xlink="http://www.w3.org/1999/xlink">
 <linearGradient id="SVGID_1_" gradientTransform="matrix(0 -1 -1 0 -1633.6 -5322.99)" 
 gradientUnits="userSpaceOnUse" x1="-5319.373" x2="-5803.829" y1="-2545.861" y2="-1191.465">
 <stop offset="0" stop-color="#ffd9d9" stop-opacity="0"/><stop offset=".9981" stop-color="#ffb3b3"/>
 </linearGradient><linearGradient id="SVGID_2_" gradientUnits="userSpaceOnUse" x1="256.001" x2="256.001" 
 y1="387.934" y2="120.99"><stop offset="0" stop-color="#ff4d4d" 
 stop-opacity=".4"/><stop offset="1" stop-color="#ff4d4d" stop-opacity="0"/>
 </linearGradient><g><g><g>
 <path d="m180.252.001c-100.63.534-151.151 173.599-170.006 262.559-18.855 88.961.847 271.458 147.096
  247.249 23.64-3.913 29.158-4.715 48.645-14.497 34.685-17.411 75.734-29.661 112.83-33.359 15.211-1.516
   34.445-6.538 44.624-8.368 81.626-14.679 164.928-93.76 139.709-176.622-18.939-62.228-74.428-87.278-129.998-83.834-30.518 1.891-62.997-16.011-69.51-35.788-21.214-64.417-45.612-157.752-123.39-157.34z" fill="url(#SVGID_1_)"/></g><g><path d="m452.044 387.934h-392.088v-249.734c0-9.505 7.705-17.21 17.21-17.21h357.669c9.505 0 17.21 7.705 17.21 17.21v249.734z" fill="#8383ff"/><path d="m423.828 340.276h-335.656c-2.761 0-5-2.239-5-5v-184.432c0-2.761 2.239-5 5-5h335.656c2.761 0 5 2.239 5 5v184.432c0 2.761-2.237 5-5 5z" fill="#fff"/><path d="m428.828 211v-60.156c0-2.761-2.239-5-5-5h-335.656c-2.761 0-5 2.239-5 5v60.156z" fill="#ffd9d9"/><g><g><g><path d="m400.542 257.907h-175.52c-2.762 0-5-2.239-5-5s2.238-5 5-5h175.52c2.762 0 5 2.239 5 5s-2.239 5-5 5z" fill="#ff6c6c"/></g><g><path d="m400.542 275.409h-175.52c-2.762 0-5-2.239-5-5s2.238-5 5-5h175.52c2.762 0 5 2.239 5 5s-2.239 5-5 5z" fill="#ff6c6c"/></g><g><path d="m400.542 292.912h-175.52c-2.762 0-5-2.239-5-5s2.238-5 5-5h175.52c2.762 0 5 2.239 5 5s-2.239 5-5 5z" fill="#ff6c6c"/></g><g><path d="m400.542 300.415c2.762 0 5 2.239 5 5s-2.238 5-5 5h-175.52c-2.762 0-5-2.239-5-5s2.238-5 5-5z" fill="#ff6c6c"/></g></g><g><g><g><path d="m160.979 257.907h-49.52c-2.762 0-5-2.239-5-5s2.238-5 5-5h49.52c2.762 0 5 2.239 5 5s-2.239 5-5 5z" fill="#8383ff"/></g><g><path d="m187.979 275.409h-76.52c-2.762 0-5-2.239-5-5s2.238-5 5-5h76.52c2.762 0 5 2.239 5 5s-2.239 5-5 5z" fill="#8383ff"/></g></g><g><g><path d="m187.979 292.912h-76.52c-2.762 0-5-2.239-5-5s2.238-5 5-5h76.52c2.762 0 5 2.239 5 5s-2.239 5-5 5z" fill="#8383ff"/></g><g><path d="m187.979 310.415h-76.52c-2.762 0-5-2.239-5-5s2.238-5 5-5h76.52c2.762 0 5 2.239 5 5s-2.239 5-5 5z" fill="#8383ff"/></g></g><g fill="#ff6c6c"><circle cx="113.006" cy="234.856" r="5"/><circle cx="129.256" cy="234.856" r="5"/></g></g></g><path d="m452.044 387.934h-392.088v-249.734c0-9.505 7.705-17.21 17.21-17.21h357.669c9.505 0 17.21 7.705 17.21 17.21v249.734z" fill="url(#SVGID_2_)"/><path d="m481.991 374.25v25.21c0 5.52-4.47 10-10 10h-431.981c-5.53 0-10-4.48-10-10v-25.21c0-5.52 4.47-10 10-10h136.005c1.451 0 2.831.63 3.78 1.728l12.875 14.872h126.66l12.875-14.872c.95-1.097 2.329-1.728 3.78-1.728h136.005c5.531 0 10.001 4.48 10.001 10z" fill="#d9d9ff"/><path d="m100.5 63.35h-3v-3c0-2.761-2.239-5-5-5s-5 2.239-5 5v3h-3c-2.761 0-5 2.239-5 5s2.239 5 5 5h3v3c0 2.761 2.239 5 5 5s5-2.239 5-5v-3h3c2.761 0 5-2.239 5-5s-2.239-5-5-5z" fill="#ff6c6c"/><path d="m170.333 461.5h-3v-3c0-2.761-2.239-5-5-5s-5 2.239-5 5v3h-3c-2.761 0-5 2.239-5 5s2.239 5 5 5h3v3c0 2.761 2.239 5 5 5s5-2.239 5-5v-3h3c2.761 0 5-2.239 5-5s-2.238-5-5-5z" fill="#ff6c6c"/><path d="m431.828 81.316h-3v-3c0-2.761-2.238-5-5-5s-5 2.239-5 5v3h-3c-2.762 0-5 2.239-5 5s2.238 5 5 5h3v3c0 2.761 2.238 5 5 5s5-2.239 5-5v-3h3c2.762 0 5-2.239 5-5s-2.237-5-5-5z" fill="#8383ff"/><path d="m144.219 48.667c-1.28 0-2.559-.488-3.536-1.464l-4.464-4.464-4.464 4.464c-1.953 1.952-5.118 1.952-7.071 0-1.953-1.953-1.953-5.119 0-7.071l8-8c1.953-1.952 5.118-1.952 7.071 0l8 8c1.953 1.953 1.953 5.119 0 7.071-.977.975-2.256 1.464-3.536 1.464z" fill="#ff9d33"/><path d="m230.271 483.646c-1.28 0-2.559-.488-3.536-1.464l-4.464-4.464-4.464 4.464c-1.953 1.952-5.118 1.952-7.071 0-1.953-1.953-1.953-5.119 0-7.071l8-8c1.953-1.952 5.118-1.952 7.071 0l8 8c1.953 1.953 1.953 5.119 0 7.071-.977.975-2.257 1.464-3.536 1.464z" fill="#8383ff"/><path d="m345.331 94.76v95.29c0 2.03-1.23 3.86-3.12 4.63l-84.32 34.41c-1.21.49-2.57.49-3.78 0l-84.32-34.41c-1.89-.77-3.12-2.6-3.12-4.63v-95.29z" fill="#4d4dff"/><path d="m345.331 94.76v27.21l-81.77 33.36c-2.41.99-4.96 1.49-7.56 1.49s-5.15-.5-7.56-1.49l-81.77-33.36v-27.21z" fill="#2c27ff"/><path d="m254.111 29.145-126.275 51.521c-4.148 1.692-4.148 7.566 0 9.259l126.275 51.521c1.211.494 2.567.494 3.778 0l126.275-51.521c4.148-1.692 4.148-7.566 0-9.259l-126.275-51.521c-1.211-.494-2.567-.494-3.778 0z" fill="#8383ff"/><path d="m329.562 317h-25.122c-2.761 0-5-2.239-5-5v-29.029c0-9.699 7.863-17.562 17.562-17.562s17.562 7.863 17.562 17.562v29.029c-.002 2.761-2.24 5-5.002 5z" fill="#ff7300"/><circle cx="317" cy="254.462" fill="#ffc599" r="19.269"/><path d="m314.948 112.765-70.442-31.025c-2.528-1.114-5.479.032-6.591 2.561-1.113 2.527.033 5.478 2.561 6.591l61.594 27.129c6.837 2.379 10.147 4.629 9.93 6.748v111.995h10v-116.075c-.473-3.621-2.823-6.263-7.052-7.924z"
 fill="#2626bc"/><path d="m323.667 317v-20c0-2.761-2.238-5-5-5s-5 2.239-5 5v20z" fill="#ff2c2c"/></g></g></g></svg>